<mxfile host="app.diagrams.net" modified="2023-10-07T17:48:01.208Z" agent="Mozilla/5.0 (X11; Linux x86_64) AppleWebKit/537.36 (KHTML, like Gecko) Chrome/117.0.0.0 Safari/537.36" version="22.0.2" etag="b4aMhdr_pCTOJ8MWycF_" type="github">
  <diagram name="Page-1" id="caHt_Hg5WghUoF35e4io">
    <mxGraphModel>
      <root>
        <mxCell id="0" />
        <mxCell id="1" parent="0" />
      </root>
    </mxGraphModel>
  </diagram>
</mxfile>
